<mxfile host="app.diagrams.net" modified="2024-04-11T23:37:27.393Z" agent="Mozilla/5.0 (Windows NT 10.0; Win64; x64) AppleWebKit/537.36 (KHTML, like Gecko) Chrome/123.0.0.0 Safari/537.36" etag="JSlt_TbLYZFCE-piSQ2x" version="24.2.3" type="device">
  <diagram name="Page-1" id="NlU0IGjigq2J7Ib-XljO">
    <mxGraphModel dx="2693" dy="1857" grid="1" gridSize="10" guides="1" tooltips="1" connect="1" arrows="1" fold="1" page="1" pageScale="1" pageWidth="850" pageHeight="1100" math="0" shadow="0">
      <root>
        <mxCell id="0" />
        <mxCell id="1" parent="0" />
        <mxCell id="TKDaQTlKowNkifoECcdJ-1" value="" style="shape=table;startSize=0;container=1;collapsible=0;childLayout=tableLayout;" parent="1" vertex="1">
          <mxGeometry x="-520" y="160" width="321" height="40" as="geometry" />
        </mxCell>
        <mxCell id="TKDaQTlKowNkifoECcdJ-2" value="" style="shape=tableRow;horizontal=0;startSize=0;swimlaneHead=0;swimlaneBody=0;strokeColor=inherit;top=0;left=0;bottom=0;right=0;collapsible=0;dropTarget=0;fillColor=none;points=[[0,0.5],[1,0.5]];portConstraint=eastwest;" parent="TKDaQTlKowNkifoECcdJ-1" vertex="1">
          <mxGeometry width="321" height="40" as="geometry" />
        </mxCell>
        <mxCell id="TKDaQTlKowNkifoECcdJ-3" value="&lt;u&gt;mem_email&lt;/u&gt;" style="shape=partialRectangle;html=1;whiteSpace=wrap;connectable=0;strokeColor=inherit;overflow=hidden;fillColor=#FFF4C3;top=0;left=0;bottom=0;right=0;pointerEvents=1;" parent="TKDaQTlKowNkifoECcdJ-2" vertex="1">
          <mxGeometry width="107" height="40" as="geometry">
            <mxRectangle width="107" height="40" as="alternateBounds" />
          </mxGeometry>
        </mxCell>
        <mxCell id="TKDaQTlKowNkifoECcdJ-4" value="first_name" style="shape=partialRectangle;html=1;whiteSpace=wrap;connectable=0;strokeColor=inherit;overflow=hidden;fillColor=none;top=0;left=0;bottom=0;right=0;pointerEvents=1;" parent="TKDaQTlKowNkifoECcdJ-2" vertex="1">
          <mxGeometry x="107" width="107" height="40" as="geometry">
            <mxRectangle width="107" height="40" as="alternateBounds" />
          </mxGeometry>
        </mxCell>
        <mxCell id="TKDaQTlKowNkifoECcdJ-5" value="last_name" style="shape=partialRectangle;html=1;whiteSpace=wrap;connectable=0;strokeColor=inherit;overflow=hidden;fillColor=none;top=0;left=0;bottom=0;right=0;pointerEvents=1;" parent="TKDaQTlKowNkifoECcdJ-2" vertex="1">
          <mxGeometry x="214" width="107" height="40" as="geometry">
            <mxRectangle width="107" height="40" as="alternateBounds" />
          </mxGeometry>
        </mxCell>
        <mxCell id="TKDaQTlKowNkifoECcdJ-8" value="&lt;b&gt;&lt;font style=&quot;font-size: 18px;&quot;&gt;members&lt;/font&gt;&lt;/b&gt;" style="text;html=1;align=center;verticalAlign=middle;resizable=0;points=[];autosize=1;strokeColor=none;fillColor=none;" parent="1" vertex="1">
          <mxGeometry x="-640" y="160" width="100" height="40" as="geometry" />
        </mxCell>
        <mxCell id="TKDaQTlKowNkifoECcdJ-9" value="" style="shape=table;startSize=0;container=1;collapsible=0;childLayout=tableLayout;" parent="1" vertex="1">
          <mxGeometry x="90" y="290" width="538" height="40" as="geometry" />
        </mxCell>
        <mxCell id="TKDaQTlKowNkifoECcdJ-10" value="" style="shape=tableRow;horizontal=0;startSize=0;swimlaneHead=0;swimlaneBody=0;strokeColor=inherit;top=0;left=0;bottom=0;right=0;collapsible=0;dropTarget=0;fillColor=none;points=[[0,0.5],[1,0.5]];portConstraint=eastwest;" parent="TKDaQTlKowNkifoECcdJ-9" vertex="1">
          <mxGeometry width="538" height="40" as="geometry" />
        </mxCell>
        <mxCell id="TKDaQTlKowNkifoECcdJ-11" value="&lt;u&gt;session_id&lt;/u&gt;" style="shape=partialRectangle;html=1;whiteSpace=wrap;connectable=0;strokeColor=inherit;overflow=hidden;fillColor=#D5E8D4;top=0;left=0;bottom=0;right=0;pointerEvents=1;" parent="TKDaQTlKowNkifoECcdJ-10" vertex="1">
          <mxGeometry width="110" height="40" as="geometry">
            <mxRectangle width="110" height="40" as="alternateBounds" />
          </mxGeometry>
        </mxCell>
        <mxCell id="TKDaQTlKowNkifoECcdJ-117" value="trainer_email" style="shape=partialRectangle;html=1;whiteSpace=wrap;connectable=0;strokeColor=inherit;overflow=hidden;fillColor=#FF99CC;top=0;left=0;bottom=0;right=0;pointerEvents=1;" parent="TKDaQTlKowNkifoECcdJ-10" vertex="1">
          <mxGeometry x="110" width="110" height="40" as="geometry">
            <mxRectangle width="110" height="40" as="alternateBounds" />
          </mxGeometry>
        </mxCell>
        <mxCell id="TKDaQTlKowNkifoECcdJ-12" value="session_date" style="shape=partialRectangle;html=1;whiteSpace=wrap;connectable=0;strokeColor=inherit;overflow=hidden;fillColor=none;top=0;left=0;bottom=0;right=0;pointerEvents=1;" parent="TKDaQTlKowNkifoECcdJ-10" vertex="1">
          <mxGeometry x="220" width="104" height="40" as="geometry">
            <mxRectangle width="104" height="40" as="alternateBounds" />
          </mxGeometry>
        </mxCell>
        <mxCell id="TKDaQTlKowNkifoECcdJ-13" value="session_time" style="shape=partialRectangle;html=1;whiteSpace=wrap;connectable=0;strokeColor=inherit;overflow=hidden;fillColor=none;top=0;left=0;bottom=0;right=0;pointerEvents=1;" parent="TKDaQTlKowNkifoECcdJ-10" vertex="1">
          <mxGeometry x="324" width="107" height="40" as="geometry">
            <mxRectangle width="107" height="40" as="alternateBounds" />
          </mxGeometry>
        </mxCell>
        <mxCell id="TKDaQTlKowNkifoECcdJ-14" value="room_id" style="shape=partialRectangle;html=1;whiteSpace=wrap;connectable=0;strokeColor=inherit;overflow=hidden;fillColor=#B9E0A5;top=0;left=0;bottom=0;right=0;pointerEvents=1;" parent="TKDaQTlKowNkifoECcdJ-10" vertex="1">
          <mxGeometry x="431" width="107" height="40" as="geometry">
            <mxRectangle width="107" height="40" as="alternateBounds" />
          </mxGeometry>
        </mxCell>
        <mxCell id="TKDaQTlKowNkifoECcdJ-15" value="&lt;span style=&quot;font-size: 18px;&quot;&gt;&lt;b&gt;personal_sessions&lt;/b&gt;&lt;/span&gt;" style="text;html=1;align=center;verticalAlign=middle;resizable=0;points=[];autosize=1;strokeColor=none;fillColor=none;" parent="1" vertex="1">
          <mxGeometry x="-120" y="290" width="190" height="40" as="geometry" />
        </mxCell>
        <mxCell id="TKDaQTlKowNkifoECcdJ-16" value="" style="shape=table;startSize=0;container=1;collapsible=0;childLayout=tableLayout;" parent="1" vertex="1">
          <mxGeometry x="90" y="40" width="538" height="40" as="geometry" />
        </mxCell>
        <mxCell id="TKDaQTlKowNkifoECcdJ-17" value="" style="shape=tableRow;horizontal=0;startSize=0;swimlaneHead=0;swimlaneBody=0;strokeColor=inherit;top=0;left=0;bottom=0;right=0;collapsible=0;dropTarget=0;fillColor=none;points=[[0,0.5],[1,0.5]];portConstraint=eastwest;" parent="TKDaQTlKowNkifoECcdJ-16" vertex="1">
          <mxGeometry width="538" height="40" as="geometry" />
        </mxCell>
        <mxCell id="TKDaQTlKowNkifoECcdJ-18" value="&lt;u&gt;class_id&lt;/u&gt;" style="shape=partialRectangle;html=1;whiteSpace=wrap;connectable=0;strokeColor=inherit;overflow=hidden;fillColor=#C3ABD0;top=0;left=0;bottom=0;right=0;pointerEvents=1;" parent="TKDaQTlKowNkifoECcdJ-17" vertex="1">
          <mxGeometry width="110" height="40" as="geometry">
            <mxRectangle width="110" height="40" as="alternateBounds" />
          </mxGeometry>
        </mxCell>
        <mxCell id="TKDaQTlKowNkifoECcdJ-116" value="trainer_email" style="shape=partialRectangle;html=1;whiteSpace=wrap;connectable=0;strokeColor=inherit;overflow=hidden;fillColor=#FF99CC;top=0;left=0;bottom=0;right=0;pointerEvents=1;" parent="TKDaQTlKowNkifoECcdJ-17" vertex="1">
          <mxGeometry x="110" width="110" height="40" as="geometry">
            <mxRectangle width="110" height="40" as="alternateBounds" />
          </mxGeometry>
        </mxCell>
        <mxCell id="TKDaQTlKowNkifoECcdJ-19" value="class_date" style="shape=partialRectangle;html=1;whiteSpace=wrap;connectable=0;strokeColor=inherit;overflow=hidden;fillColor=none;top=0;left=0;bottom=0;right=0;pointerEvents=1;" parent="TKDaQTlKowNkifoECcdJ-17" vertex="1">
          <mxGeometry x="220" width="104" height="40" as="geometry">
            <mxRectangle width="104" height="40" as="alternateBounds" />
          </mxGeometry>
        </mxCell>
        <mxCell id="TKDaQTlKowNkifoECcdJ-20" value="class_time" style="shape=partialRectangle;html=1;whiteSpace=wrap;connectable=0;strokeColor=inherit;overflow=hidden;fillColor=none;top=0;left=0;bottom=0;right=0;pointerEvents=1;" parent="TKDaQTlKowNkifoECcdJ-17" vertex="1">
          <mxGeometry x="324" width="107" height="40" as="geometry">
            <mxRectangle width="107" height="40" as="alternateBounds" />
          </mxGeometry>
        </mxCell>
        <mxCell id="TKDaQTlKowNkifoECcdJ-21" value="room_id" style="shape=partialRectangle;html=1;whiteSpace=wrap;connectable=0;strokeColor=inherit;overflow=hidden;fillColor=#B9E0A5;top=0;left=0;bottom=0;right=0;pointerEvents=1;" parent="TKDaQTlKowNkifoECcdJ-17" vertex="1">
          <mxGeometry x="431" width="107" height="40" as="geometry">
            <mxRectangle width="107" height="40" as="alternateBounds" />
          </mxGeometry>
        </mxCell>
        <mxCell id="TKDaQTlKowNkifoECcdJ-22" value="&lt;span style=&quot;font-size: 18px;&quot;&gt;&lt;b&gt;group_classes&lt;/b&gt;&lt;/span&gt;" style="text;html=1;align=center;verticalAlign=middle;resizable=0;points=[];autosize=1;strokeColor=none;fillColor=none;" parent="1" vertex="1">
          <mxGeometry x="-60" y="40" width="150" height="40" as="geometry" />
        </mxCell>
        <mxCell id="TKDaQTlKowNkifoECcdJ-23" value="" style="shape=table;startSize=0;container=1;collapsible=0;childLayout=tableLayout;" parent="1" vertex="1">
          <mxGeometry x="140" y="160" width="321" height="40" as="geometry" />
        </mxCell>
        <mxCell id="TKDaQTlKowNkifoECcdJ-24" value="" style="shape=tableRow;horizontal=0;startSize=0;swimlaneHead=0;swimlaneBody=0;strokeColor=inherit;top=0;left=0;bottom=0;right=0;collapsible=0;dropTarget=0;fillColor=none;points=[[0,0.5],[1,0.5]];portConstraint=eastwest;" parent="TKDaQTlKowNkifoECcdJ-23" vertex="1">
          <mxGeometry width="321" height="40" as="geometry" />
        </mxCell>
        <mxCell id="TKDaQTlKowNkifoECcdJ-25" value="&lt;u&gt;trainer_email&lt;/u&gt;" style="shape=partialRectangle;html=1;whiteSpace=wrap;connectable=0;strokeColor=inherit;overflow=hidden;fillColor=#FF99CC;top=0;left=0;bottom=0;right=0;pointerEvents=1;" parent="TKDaQTlKowNkifoECcdJ-24" vertex="1">
          <mxGeometry width="110" height="40" as="geometry">
            <mxRectangle width="110" height="40" as="alternateBounds" />
          </mxGeometry>
        </mxCell>
        <mxCell id="TKDaQTlKowNkifoECcdJ-26" value="first_name" style="shape=partialRectangle;html=1;whiteSpace=wrap;connectable=0;strokeColor=inherit;overflow=hidden;fillColor=none;top=0;left=0;bottom=0;right=0;pointerEvents=1;" parent="TKDaQTlKowNkifoECcdJ-24" vertex="1">
          <mxGeometry x="110" width="104" height="40" as="geometry">
            <mxRectangle width="104" height="40" as="alternateBounds" />
          </mxGeometry>
        </mxCell>
        <mxCell id="TKDaQTlKowNkifoECcdJ-27" value="last_name" style="shape=partialRectangle;html=1;whiteSpace=wrap;connectable=0;strokeColor=inherit;overflow=hidden;fillColor=none;top=0;left=0;bottom=0;right=0;pointerEvents=1;" parent="TKDaQTlKowNkifoECcdJ-24" vertex="1">
          <mxGeometry x="214" width="107" height="40" as="geometry">
            <mxRectangle width="107" height="40" as="alternateBounds" />
          </mxGeometry>
        </mxCell>
        <mxCell id="TKDaQTlKowNkifoECcdJ-29" value="&lt;span style=&quot;font-size: 18px;&quot;&gt;&lt;b&gt;trainer&lt;/b&gt;&lt;/span&gt;" style="text;html=1;align=center;verticalAlign=middle;resizable=0;points=[];autosize=1;strokeColor=none;fillColor=none;" parent="1" vertex="1">
          <mxGeometry x="30" y="160" width="80" height="40" as="geometry" />
        </mxCell>
        <mxCell id="TKDaQTlKowNkifoECcdJ-30" value="" style="shape=table;startSize=0;container=1;collapsible=0;childLayout=tableLayout;" parent="1" vertex="1">
          <mxGeometry x="790" y="-80" width="214" height="40" as="geometry" />
        </mxCell>
        <mxCell id="TKDaQTlKowNkifoECcdJ-31" value="" style="shape=tableRow;horizontal=0;startSize=0;swimlaneHead=0;swimlaneBody=0;strokeColor=inherit;top=0;left=0;bottom=0;right=0;collapsible=0;dropTarget=0;fillColor=none;points=[[0,0.5],[1,0.5]];portConstraint=eastwest;" parent="TKDaQTlKowNkifoECcdJ-30" vertex="1">
          <mxGeometry width="214" height="40" as="geometry" />
        </mxCell>
        <mxCell id="TKDaQTlKowNkifoECcdJ-32" value="&lt;u&gt;room_id&lt;/u&gt;" style="shape=partialRectangle;html=1;whiteSpace=wrap;connectable=0;strokeColor=inherit;overflow=hidden;fillColor=#B9E0A5;top=0;left=0;bottom=0;right=0;pointerEvents=1;" parent="TKDaQTlKowNkifoECcdJ-31" vertex="1">
          <mxGeometry width="110" height="40" as="geometry">
            <mxRectangle width="110" height="40" as="alternateBounds" />
          </mxGeometry>
        </mxCell>
        <mxCell id="TKDaQTlKowNkifoECcdJ-33" value="building" style="shape=partialRectangle;html=1;whiteSpace=wrap;connectable=0;strokeColor=inherit;overflow=hidden;fillColor=none;top=0;left=0;bottom=0;right=0;pointerEvents=1;" parent="TKDaQTlKowNkifoECcdJ-31" vertex="1">
          <mxGeometry x="110" width="104" height="40" as="geometry">
            <mxRectangle width="104" height="40" as="alternateBounds" />
          </mxGeometry>
        </mxCell>
        <mxCell id="TKDaQTlKowNkifoECcdJ-36" value="&lt;span style=&quot;font-size: 18px;&quot;&gt;&lt;b&gt;rooms&lt;/b&gt;&lt;/span&gt;" style="text;html=1;align=center;verticalAlign=middle;resizable=0;points=[];autosize=1;strokeColor=none;fillColor=none;" parent="1" vertex="1">
          <mxGeometry x="690" y="-80" width="80" height="40" as="geometry" />
        </mxCell>
        <mxCell id="TKDaQTlKowNkifoECcdJ-37" value="" style="shape=table;startSize=0;container=1;collapsible=0;childLayout=tableLayout;" parent="1" vertex="1">
          <mxGeometry x="800" y="80" width="428" height="40" as="geometry" />
        </mxCell>
        <mxCell id="TKDaQTlKowNkifoECcdJ-38" value="" style="shape=tableRow;horizontal=0;startSize=0;swimlaneHead=0;swimlaneBody=0;strokeColor=inherit;top=0;left=0;bottom=0;right=0;collapsible=0;dropTarget=0;fillColor=none;points=[[0,0.5],[1,0.5]];portConstraint=eastwest;" parent="TKDaQTlKowNkifoECcdJ-37" vertex="1">
          <mxGeometry width="428" height="40" as="geometry" />
        </mxCell>
        <mxCell id="TKDaQTlKowNkifoECcdJ-39" value="&lt;u&gt;staff_email&lt;/u&gt;" style="shape=partialRectangle;html=1;whiteSpace=wrap;connectable=0;strokeColor=inherit;overflow=hidden;fillColor=#FFCC99;top=0;left=0;bottom=0;right=0;pointerEvents=1;" parent="TKDaQTlKowNkifoECcdJ-38" vertex="1">
          <mxGeometry width="110" height="40" as="geometry">
            <mxRectangle width="110" height="40" as="alternateBounds" />
          </mxGeometry>
        </mxCell>
        <mxCell id="TKDaQTlKowNkifoECcdJ-40" value="first_name" style="shape=partialRectangle;html=1;whiteSpace=wrap;connectable=0;strokeColor=inherit;overflow=hidden;fillColor=none;top=0;left=0;bottom=0;right=0;pointerEvents=1;" parent="TKDaQTlKowNkifoECcdJ-38" vertex="1">
          <mxGeometry x="110" width="104" height="40" as="geometry">
            <mxRectangle width="104" height="40" as="alternateBounds" />
          </mxGeometry>
        </mxCell>
        <mxCell id="TKDaQTlKowNkifoECcdJ-41" value="last_name" style="shape=partialRectangle;html=1;whiteSpace=wrap;connectable=0;strokeColor=inherit;overflow=hidden;fillColor=none;top=0;left=0;bottom=0;right=0;pointerEvents=1;" parent="TKDaQTlKowNkifoECcdJ-38" vertex="1">
          <mxGeometry x="214" width="107" height="40" as="geometry">
            <mxRectangle width="107" height="40" as="alternateBounds" />
          </mxGeometry>
        </mxCell>
        <mxCell id="TKDaQTlKowNkifoECcdJ-42" value="email" style="shape=partialRectangle;html=1;whiteSpace=wrap;connectable=0;strokeColor=inherit;overflow=hidden;fillColor=none;top=0;left=0;bottom=0;right=0;pointerEvents=1;" parent="TKDaQTlKowNkifoECcdJ-38" vertex="1">
          <mxGeometry x="321" width="107" height="40" as="geometry">
            <mxRectangle width="107" height="40" as="alternateBounds" />
          </mxGeometry>
        </mxCell>
        <mxCell id="TKDaQTlKowNkifoECcdJ-43" value="&lt;span style=&quot;font-size: 18px;&quot;&gt;&lt;b&gt;admin_staff&lt;/b&gt;&lt;/span&gt;" style="text;html=1;align=center;verticalAlign=middle;resizable=0;points=[];autosize=1;strokeColor=none;fillColor=none;" parent="1" vertex="1">
          <mxGeometry x="670" y="80" width="120" height="40" as="geometry" />
        </mxCell>
        <mxCell id="TKDaQTlKowNkifoECcdJ-44" value="" style="shape=table;startSize=0;container=1;collapsible=0;childLayout=tableLayout;" parent="1" vertex="1">
          <mxGeometry x="800" y="200" width="321" height="40" as="geometry" />
        </mxCell>
        <mxCell id="TKDaQTlKowNkifoECcdJ-45" value="" style="shape=tableRow;horizontal=0;startSize=0;swimlaneHead=0;swimlaneBody=0;strokeColor=inherit;top=0;left=0;bottom=0;right=0;collapsible=0;dropTarget=0;fillColor=none;points=[[0,0.5],[1,0.5]];portConstraint=eastwest;" parent="TKDaQTlKowNkifoECcdJ-44" vertex="1">
          <mxGeometry width="321" height="40" as="geometry" />
        </mxCell>
        <mxCell id="TKDaQTlKowNkifoECcdJ-46" value="&lt;u&gt;equip_id&lt;/u&gt;" style="shape=partialRectangle;html=1;whiteSpace=wrap;connectable=0;strokeColor=inherit;overflow=hidden;fillColor=#B3B3B3;top=0;left=0;bottom=0;right=0;pointerEvents=1;" parent="TKDaQTlKowNkifoECcdJ-45" vertex="1">
          <mxGeometry width="110" height="40" as="geometry">
            <mxRectangle width="110" height="40" as="alternateBounds" />
          </mxGeometry>
        </mxCell>
        <mxCell id="TKDaQTlKowNkifoECcdJ-47" value="equip_name" style="shape=partialRectangle;html=1;whiteSpace=wrap;connectable=0;strokeColor=inherit;overflow=hidden;fillColor=none;top=0;left=0;bottom=0;right=0;pointerEvents=1;" parent="TKDaQTlKowNkifoECcdJ-45" vertex="1">
          <mxGeometry x="110" width="104" height="40" as="geometry">
            <mxRectangle width="104" height="40" as="alternateBounds" />
          </mxGeometry>
        </mxCell>
        <mxCell id="TKDaQTlKowNkifoECcdJ-48" value="maintenance_date" style="shape=partialRectangle;html=1;whiteSpace=wrap;connectable=0;strokeColor=inherit;overflow=hidden;fillColor=none;top=0;left=0;bottom=0;right=0;pointerEvents=1;" parent="TKDaQTlKowNkifoECcdJ-45" vertex="1">
          <mxGeometry x="214" width="107" height="40" as="geometry">
            <mxRectangle width="107" height="40" as="alternateBounds" />
          </mxGeometry>
        </mxCell>
        <mxCell id="TKDaQTlKowNkifoECcdJ-50" value="&lt;span style=&quot;font-size: 18px;&quot;&gt;&lt;b&gt;equipment&lt;/b&gt;&lt;/span&gt;" style="text;html=1;align=center;verticalAlign=middle;resizable=0;points=[];autosize=1;strokeColor=none;fillColor=none;" parent="1" vertex="1">
          <mxGeometry x="675" y="200" width="110" height="40" as="geometry" />
        </mxCell>
        <mxCell id="TKDaQTlKowNkifoECcdJ-51" value="" style="shape=table;startSize=0;container=1;collapsible=0;childLayout=tableLayout;" parent="1" vertex="1">
          <mxGeometry x="-635" y="490" width="428" height="40" as="geometry" />
        </mxCell>
        <mxCell id="TKDaQTlKowNkifoECcdJ-52" value="" style="shape=tableRow;horizontal=0;startSize=0;swimlaneHead=0;swimlaneBody=0;strokeColor=inherit;top=0;left=0;bottom=0;right=0;collapsible=0;dropTarget=0;fillColor=none;points=[[0,0.5],[1,0.5]];portConstraint=eastwest;" parent="TKDaQTlKowNkifoECcdJ-51" vertex="1">
          <mxGeometry width="428" height="40" as="geometry" />
        </mxCell>
        <mxCell id="TKDaQTlKowNkifoECcdJ-53" value="&lt;u&gt;billing_id&lt;/u&gt;" style="shape=partialRectangle;html=1;whiteSpace=wrap;connectable=0;strokeColor=inherit;overflow=hidden;fillColor=#F19C99;top=0;left=0;bottom=0;right=0;pointerEvents=1;" parent="TKDaQTlKowNkifoECcdJ-52" vertex="1">
          <mxGeometry width="110" height="40" as="geometry">
            <mxRectangle width="110" height="40" as="alternateBounds" />
          </mxGeometry>
        </mxCell>
        <mxCell id="TKDaQTlKowNkifoECcdJ-54" value="mem_id" style="shape=partialRectangle;html=1;whiteSpace=wrap;connectable=0;strokeColor=inherit;overflow=hidden;fillColor=#FFF4C3;top=0;left=0;bottom=0;right=0;pointerEvents=1;" parent="TKDaQTlKowNkifoECcdJ-52" vertex="1">
          <mxGeometry x="110" width="104" height="40" as="geometry">
            <mxRectangle width="104" height="40" as="alternateBounds" />
          </mxGeometry>
        </mxCell>
        <mxCell id="TKDaQTlKowNkifoECcdJ-55" value="amount" style="shape=partialRectangle;html=1;whiteSpace=wrap;connectable=0;strokeColor=inherit;overflow=hidden;fillColor=none;top=0;left=0;bottom=0;right=0;pointerEvents=1;" parent="TKDaQTlKowNkifoECcdJ-52" vertex="1">
          <mxGeometry x="214" width="107" height="40" as="geometry">
            <mxRectangle width="107" height="40" as="alternateBounds" />
          </mxGeometry>
        </mxCell>
        <mxCell id="TKDaQTlKowNkifoECcdJ-56" value="billing_date" style="shape=partialRectangle;html=1;whiteSpace=wrap;connectable=0;strokeColor=inherit;overflow=hidden;fillColor=none;top=0;left=0;bottom=0;right=0;pointerEvents=1;" parent="TKDaQTlKowNkifoECcdJ-52" vertex="1">
          <mxGeometry x="321" width="107" height="40" as="geometry">
            <mxRectangle width="107" height="40" as="alternateBounds" />
          </mxGeometry>
        </mxCell>
        <mxCell id="TKDaQTlKowNkifoECcdJ-57" value="&lt;span style=&quot;font-size: 18px;&quot;&gt;&lt;b&gt;billings&lt;/b&gt;&lt;/span&gt;" style="text;html=1;align=center;verticalAlign=middle;resizable=0;points=[];autosize=1;strokeColor=none;fillColor=none;" parent="1" vertex="1">
          <mxGeometry x="-740" y="490" width="90" height="40" as="geometry" />
        </mxCell>
        <mxCell id="TKDaQTlKowNkifoECcdJ-64" value="&lt;span style=&quot;font-size: 18px;&quot;&gt;&lt;b&gt;health_metrics&lt;/b&gt;&lt;/span&gt;" style="text;html=1;align=center;verticalAlign=middle;resizable=0;points=[];autosize=1;strokeColor=none;fillColor=none;" parent="1" vertex="1">
          <mxGeometry x="-840" y="-80" width="150" height="40" as="geometry" />
        </mxCell>
        <mxCell id="TKDaQTlKowNkifoECcdJ-65" value="" style="shape=table;startSize=0;container=1;collapsible=0;childLayout=tableLayout;" parent="1" vertex="1">
          <mxGeometry x="-520" y="40" width="214" height="40" as="geometry" />
        </mxCell>
        <mxCell id="TKDaQTlKowNkifoECcdJ-66" value="" style="shape=tableRow;horizontal=0;startSize=0;swimlaneHead=0;swimlaneBody=0;strokeColor=inherit;top=0;left=0;bottom=0;right=0;collapsible=0;dropTarget=0;fillColor=none;points=[[0,0.5],[1,0.5]];portConstraint=eastwest;" parent="TKDaQTlKowNkifoECcdJ-65" vertex="1">
          <mxGeometry width="214" height="40" as="geometry" />
        </mxCell>
        <mxCell id="TKDaQTlKowNkifoECcdJ-67" value="&lt;u&gt;mem_email&lt;/u&gt;" style="shape=partialRectangle;html=1;whiteSpace=wrap;connectable=0;strokeColor=inherit;overflow=hidden;fillColor=#FFF4C3;top=0;left=0;bottom=0;right=0;pointerEvents=1;" parent="TKDaQTlKowNkifoECcdJ-66" vertex="1">
          <mxGeometry width="110" height="40" as="geometry">
            <mxRectangle width="110" height="40" as="alternateBounds" />
          </mxGeometry>
        </mxCell>
        <mxCell id="TKDaQTlKowNkifoECcdJ-68" value="goal" style="shape=partialRectangle;html=1;whiteSpace=wrap;connectable=0;strokeColor=inherit;overflow=hidden;fillColor=none;top=0;left=0;bottom=0;right=0;pointerEvents=1;" parent="TKDaQTlKowNkifoECcdJ-66" vertex="1">
          <mxGeometry x="110" width="104" height="40" as="geometry">
            <mxRectangle width="104" height="40" as="alternateBounds" />
          </mxGeometry>
        </mxCell>
        <mxCell id="TKDaQTlKowNkifoECcdJ-71" value="&lt;span style=&quot;font-size: 18px;&quot;&gt;&lt;b&gt;fitness_goals&lt;/b&gt;&lt;/span&gt;" style="text;html=1;align=center;verticalAlign=middle;resizable=0;points=[];autosize=1;strokeColor=none;fillColor=none;" parent="1" vertex="1">
          <mxGeometry x="-670" y="40" width="140" height="40" as="geometry" />
        </mxCell>
        <mxCell id="TKDaQTlKowNkifoECcdJ-74" value="" style="shape=table;startSize=0;container=1;collapsible=0;childLayout=tableLayout;" parent="1" vertex="1">
          <mxGeometry x="-520" y="280" width="214" height="40" as="geometry" />
        </mxCell>
        <mxCell id="TKDaQTlKowNkifoECcdJ-75" value="" style="shape=tableRow;horizontal=0;startSize=0;swimlaneHead=0;swimlaneBody=0;strokeColor=inherit;top=0;left=0;bottom=0;right=0;collapsible=0;dropTarget=0;fillColor=none;points=[[0,0.5],[1,0.5]];portConstraint=eastwest;" parent="TKDaQTlKowNkifoECcdJ-74" vertex="1">
          <mxGeometry width="214" height="40" as="geometry" />
        </mxCell>
        <mxCell id="TKDaQTlKowNkifoECcdJ-76" value="&lt;u&gt;mem_email&lt;/u&gt;" style="shape=partialRectangle;html=1;whiteSpace=wrap;connectable=0;strokeColor=inherit;overflow=hidden;fillColor=#FFF4C3;top=0;left=0;bottom=0;right=0;pointerEvents=1;" parent="TKDaQTlKowNkifoECcdJ-75" vertex="1">
          <mxGeometry width="107" height="40" as="geometry">
            <mxRectangle width="107" height="40" as="alternateBounds" />
          </mxGeometry>
        </mxCell>
        <mxCell id="TKDaQTlKowNkifoECcdJ-77" value="routine" style="shape=partialRectangle;html=1;whiteSpace=wrap;connectable=0;strokeColor=inherit;overflow=hidden;fillColor=none;top=0;left=0;bottom=0;right=0;pointerEvents=1;" parent="TKDaQTlKowNkifoECcdJ-75" vertex="1">
          <mxGeometry x="107" width="107" height="40" as="geometry">
            <mxRectangle width="107" height="40" as="alternateBounds" />
          </mxGeometry>
        </mxCell>
        <mxCell id="TKDaQTlKowNkifoECcdJ-79" value="&lt;span style=&quot;font-size: 18px;&quot;&gt;&lt;b&gt;routine&lt;/b&gt;&lt;/span&gt;" style="text;html=1;align=center;verticalAlign=middle;resizable=0;points=[];autosize=1;strokeColor=none;fillColor=none;" parent="1" vertex="1">
          <mxGeometry x="-630" y="280" width="80" height="40" as="geometry" />
        </mxCell>
        <mxCell id="TKDaQTlKowNkifoECcdJ-80" value="" style="shape=table;startSize=0;container=1;collapsible=0;childLayout=tableLayout;" parent="1" vertex="1">
          <mxGeometry x="-520" y="400" width="214" height="40" as="geometry" />
        </mxCell>
        <mxCell id="TKDaQTlKowNkifoECcdJ-81" value="" style="shape=tableRow;horizontal=0;startSize=0;swimlaneHead=0;swimlaneBody=0;strokeColor=inherit;top=0;left=0;bottom=0;right=0;collapsible=0;dropTarget=0;fillColor=none;points=[[0,0.5],[1,0.5]];portConstraint=eastwest;" parent="TKDaQTlKowNkifoECcdJ-80" vertex="1">
          <mxGeometry width="214" height="40" as="geometry" />
        </mxCell>
        <mxCell id="TKDaQTlKowNkifoECcdJ-82" value="&lt;u&gt;mem_email&lt;/u&gt;" style="shape=partialRectangle;html=1;whiteSpace=wrap;connectable=0;strokeColor=inherit;overflow=hidden;fillColor=#FFF4C3;top=0;left=0;bottom=0;right=0;pointerEvents=1;" parent="TKDaQTlKowNkifoECcdJ-81" vertex="1">
          <mxGeometry width="107" height="40" as="geometry">
            <mxRectangle width="107" height="40" as="alternateBounds" />
          </mxGeometry>
        </mxCell>
        <mxCell id="TKDaQTlKowNkifoECcdJ-83" value="achievement" style="shape=partialRectangle;html=1;whiteSpace=wrap;connectable=0;strokeColor=inherit;overflow=hidden;fillColor=none;top=0;left=0;bottom=0;right=0;pointerEvents=1;" parent="TKDaQTlKowNkifoECcdJ-81" vertex="1">
          <mxGeometry x="107" width="107" height="40" as="geometry">
            <mxRectangle width="107" height="40" as="alternateBounds" />
          </mxGeometry>
        </mxCell>
        <mxCell id="TKDaQTlKowNkifoECcdJ-85" value="&lt;span style=&quot;font-size: 18px;&quot;&gt;&lt;b&gt;achievement&lt;/b&gt;&lt;/span&gt;" style="text;html=1;align=center;verticalAlign=middle;resizable=0;points=[];autosize=1;strokeColor=none;fillColor=none;" parent="1" vertex="1">
          <mxGeometry x="-655" y="400" width="130" height="40" as="geometry" />
        </mxCell>
        <mxCell id="TKDaQTlKowNkifoECcdJ-92" style="edgeStyle=orthogonalEdgeStyle;rounded=0;orthogonalLoop=1;jettySize=auto;html=1;exitX=0.18;exitY=0.061;exitDx=0;exitDy=0;exitPerimeter=0;" parent="1" edge="1">
          <mxGeometry relative="1" as="geometry">
            <mxPoint x="-529.3599999999997" y="-39.99999999999997" as="sourcePoint" />
            <mxPoint x="-500" y="158" as="targetPoint" />
            <Array as="points">
              <mxPoint x="-529" y="-5" />
              <mxPoint x="-690" y="-5" />
              <mxPoint x="-690" y="130" />
              <mxPoint x="-500" y="130" />
              <mxPoint x="-500" y="158" />
            </Array>
          </mxGeometry>
        </mxCell>
        <mxCell id="TKDaQTlKowNkifoECcdJ-89" value="" style="endArrow=classic;html=1;rounded=0;exitX=0.273;exitY=1.061;exitDx=0;exitDy=0;exitPerimeter=0;entryX=0.273;entryY=-0.025;entryDx=0;entryDy=0;entryPerimeter=0;" parent="1" edge="1">
          <mxGeometry width="50" height="50" relative="1" as="geometry">
            <mxPoint x="-469.99699999999973" y="83.44000000000005" as="sourcePoint" />
            <mxPoint x="-469.99699999999973" y="159.99999999999977" as="targetPoint" />
          </mxGeometry>
        </mxCell>
        <mxCell id="TKDaQTlKowNkifoECcdJ-93" style="edgeStyle=orthogonalEdgeStyle;rounded=0;orthogonalLoop=1;jettySize=auto;html=1;" parent="1" source="TKDaQTlKowNkifoECcdJ-75" target="TKDaQTlKowNkifoECcdJ-2" edge="1">
          <mxGeometry relative="1" as="geometry">
            <Array as="points">
              <mxPoint x="-480" y="240" />
              <mxPoint x="-460" y="240" />
            </Array>
          </mxGeometry>
        </mxCell>
        <mxCell id="TKDaQTlKowNkifoECcdJ-94" style="edgeStyle=orthogonalEdgeStyle;rounded=0;orthogonalLoop=1;jettySize=auto;html=1;exitX=0.249;exitY=0.004;exitDx=0;exitDy=0;exitPerimeter=0;" parent="1" source="TKDaQTlKowNkifoECcdJ-81" target="TKDaQTlKowNkifoECcdJ-2" edge="1">
          <mxGeometry relative="1" as="geometry">
            <Array as="points">
              <mxPoint x="-467" y="360" />
              <mxPoint x="-680" y="360" />
              <mxPoint x="-680" y="240" />
              <mxPoint x="-500" y="240" />
            </Array>
          </mxGeometry>
        </mxCell>
        <mxCell id="TKDaQTlKowNkifoECcdJ-101" value="" style="shape=table;startSize=0;container=1;collapsible=0;childLayout=tableLayout;" parent="1" vertex="1">
          <mxGeometry x="190" y="-80" width="214" height="40" as="geometry" />
        </mxCell>
        <mxCell id="TKDaQTlKowNkifoECcdJ-102" value="" style="shape=tableRow;horizontal=0;startSize=0;swimlaneHead=0;swimlaneBody=0;strokeColor=inherit;top=0;left=0;bottom=0;right=0;collapsible=0;dropTarget=0;fillColor=none;points=[[0,0.5],[1,0.5]];portConstraint=eastwest;" parent="TKDaQTlKowNkifoECcdJ-101" vertex="1">
          <mxGeometry width="214" height="40" as="geometry" />
        </mxCell>
        <mxCell id="TKDaQTlKowNkifoECcdJ-103" value="&lt;u&gt;mem_email&lt;/u&gt;" style="shape=partialRectangle;html=1;whiteSpace=wrap;connectable=0;strokeColor=inherit;overflow=hidden;fillColor=#FFF4C3;top=0;left=0;bottom=0;right=0;pointerEvents=1;" parent="TKDaQTlKowNkifoECcdJ-102" vertex="1">
          <mxGeometry width="110" height="40" as="geometry">
            <mxRectangle width="110" height="40" as="alternateBounds" />
          </mxGeometry>
        </mxCell>
        <mxCell id="TKDaQTlKowNkifoECcdJ-104" value="&lt;u&gt;class_id&lt;/u&gt;" style="shape=partialRectangle;html=1;whiteSpace=wrap;connectable=0;strokeColor=inherit;overflow=hidden;fillColor=#C3ABD0;top=0;left=0;bottom=0;right=0;pointerEvents=1;" parent="TKDaQTlKowNkifoECcdJ-102" vertex="1">
          <mxGeometry x="110" width="104" height="40" as="geometry">
            <mxRectangle width="104" height="40" as="alternateBounds" />
          </mxGeometry>
        </mxCell>
        <mxCell id="TKDaQTlKowNkifoECcdJ-106" value="&lt;span style=&quot;font-size: 18px;&quot;&gt;&lt;b&gt;group_bookings&lt;/b&gt;&lt;/span&gt;" style="text;html=1;align=center;verticalAlign=middle;resizable=0;points=[];autosize=1;strokeColor=none;fillColor=none;" parent="1" vertex="1">
          <mxGeometry x="30" y="-80" width="160" height="40" as="geometry" />
        </mxCell>
        <mxCell id="TKDaQTlKowNkifoECcdJ-110" value="" style="shape=table;startSize=0;container=1;collapsible=0;childLayout=tableLayout;" parent="1" vertex="1">
          <mxGeometry x="230" y="400" width="214" height="40" as="geometry" />
        </mxCell>
        <mxCell id="TKDaQTlKowNkifoECcdJ-111" value="" style="shape=tableRow;horizontal=0;startSize=0;swimlaneHead=0;swimlaneBody=0;strokeColor=inherit;top=0;left=0;bottom=0;right=0;collapsible=0;dropTarget=0;fillColor=none;points=[[0,0.5],[1,0.5]];portConstraint=eastwest;" parent="TKDaQTlKowNkifoECcdJ-110" vertex="1">
          <mxGeometry width="214" height="40" as="geometry" />
        </mxCell>
        <mxCell id="TKDaQTlKowNkifoECcdJ-112" value="&lt;u&gt;session_id&lt;/u&gt;" style="shape=partialRectangle;html=1;whiteSpace=wrap;connectable=0;strokeColor=inherit;overflow=hidden;fillColor=#D5E8D4;top=0;left=0;bottom=0;right=0;pointerEvents=1;" parent="TKDaQTlKowNkifoECcdJ-111" vertex="1">
          <mxGeometry width="110" height="40" as="geometry">
            <mxRectangle width="110" height="40" as="alternateBounds" />
          </mxGeometry>
        </mxCell>
        <mxCell id="TKDaQTlKowNkifoECcdJ-113" value="mem_email" style="shape=partialRectangle;html=1;whiteSpace=wrap;connectable=0;strokeColor=inherit;overflow=hidden;fillColor=none;top=0;left=0;bottom=0;right=0;pointerEvents=1;" parent="TKDaQTlKowNkifoECcdJ-111" vertex="1">
          <mxGeometry x="110" width="104" height="40" as="geometry">
            <mxRectangle width="104" height="40" as="alternateBounds" />
          </mxGeometry>
        </mxCell>
        <mxCell id="TKDaQTlKowNkifoECcdJ-114" value="&lt;span style=&quot;font-size: 18px;&quot;&gt;&lt;b&gt;personal_bookings&lt;/b&gt;&lt;/span&gt;" style="text;html=1;align=center;verticalAlign=middle;resizable=0;points=[];autosize=1;strokeColor=none;fillColor=none;" parent="1" vertex="1">
          <mxGeometry x="20" y="400" width="190" height="40" as="geometry" />
        </mxCell>
        <mxCell id="TKDaQTlKowNkifoECcdJ-119" value="" style="endArrow=classic;html=1;rounded=0;entryX=0.139;entryY=1.061;entryDx=0;entryDy=0;entryPerimeter=0;exitX=0.291;exitY=0.068;exitDx=0;exitDy=0;exitPerimeter=0;" parent="1" source="TKDaQTlKowNkifoECcdJ-10" target="TKDaQTlKowNkifoECcdJ-24" edge="1">
          <mxGeometry width="50" height="50" relative="1" as="geometry">
            <mxPoint x="-30" y="150" as="sourcePoint" />
            <mxPoint x="20" y="100" as="targetPoint" />
            <Array as="points">
              <mxPoint x="247" y="240" />
              <mxPoint x="185" y="240" />
            </Array>
          </mxGeometry>
        </mxCell>
        <mxCell id="TKDaQTlKowNkifoECcdJ-121" value="" style="endArrow=classic;html=1;rounded=0;entryX=0.131;entryY=0.004;entryDx=0;entryDy=0;entryPerimeter=0;exitX=0.295;exitY=1.032;exitDx=0;exitDy=0;exitPerimeter=0;" parent="1" source="TKDaQTlKowNkifoECcdJ-17" target="TKDaQTlKowNkifoECcdJ-24" edge="1">
          <mxGeometry width="50" height="50" relative="1" as="geometry">
            <mxPoint x="-30" y="150" as="sourcePoint" />
            <mxPoint x="20" y="100" as="targetPoint" />
            <Array as="points">
              <mxPoint x="249" y="120" />
              <mxPoint x="180" y="120" />
            </Array>
          </mxGeometry>
        </mxCell>
        <mxCell id="TKDaQTlKowNkifoECcdJ-122" value="" style="endArrow=classic;html=1;rounded=0;entryX=0.095;entryY=-0.111;entryDx=0;entryDy=0;entryPerimeter=0;exitX=0.739;exitY=1.004;exitDx=0;exitDy=0;exitPerimeter=0;" parent="1" source="TKDaQTlKowNkifoECcdJ-102" target="TKDaQTlKowNkifoECcdJ-17" edge="1">
          <mxGeometry width="50" height="50" relative="1" as="geometry">
            <mxPoint x="343" y="-40" as="sourcePoint" />
            <mxPoint x="290" y="39" as="targetPoint" />
            <Array as="points">
              <mxPoint x="348" y="-1" />
              <mxPoint x="141" y="-1" />
            </Array>
          </mxGeometry>
        </mxCell>
        <mxCell id="TKDaQTlKowNkifoECcdJ-123" value="" style="endArrow=classic;html=1;rounded=0;exitX=0.285;exitY=0.032;exitDx=0;exitDy=0;exitPerimeter=0;entryX=0.089;entryY=0.982;entryDx=0;entryDy=0;entryPerimeter=0;" parent="1" source="TKDaQTlKowNkifoECcdJ-111" target="TKDaQTlKowNkifoECcdJ-10" edge="1">
          <mxGeometry width="50" height="50" relative="1" as="geometry">
            <mxPoint x="-30" y="150" as="sourcePoint" />
            <mxPoint x="20" y="100" as="targetPoint" />
            <Array as="points">
              <mxPoint x="291" y="370" />
              <mxPoint x="138" y="370" />
            </Array>
          </mxGeometry>
        </mxCell>
        <mxCell id="TKDaQTlKowNkifoECcdJ-124" value="" style="edgeStyle=segmentEdgeStyle;endArrow=classic;html=1;curved=0;rounded=0;endSize=8;startSize=8;entryX=0.248;entryY=0.004;entryDx=0;entryDy=0;entryPerimeter=0;" parent="1" source="TKDaQTlKowNkifoECcdJ-102" edge="1">
          <mxGeometry width="50" height="50" relative="1" as="geometry">
            <mxPoint x="270.00399999999985" y="-85.72000000000017" as="sourcePoint" />
            <mxPoint x="-447.68199999999985" y="160.00000000000009" as="targetPoint" />
            <Array as="points">
              <mxPoint x="280" y="-110" />
              <mxPoint x="3" y="-110" />
              <mxPoint x="3" />
              <mxPoint x="-87" />
              <mxPoint x="-87" y="100" />
              <mxPoint x="-448" y="100" />
            </Array>
          </mxGeometry>
        </mxCell>
        <mxCell id="TKDaQTlKowNkifoECcdJ-125" value="" style="edgeStyle=segmentEdgeStyle;endArrow=classic;html=1;curved=0;rounded=0;endSize=8;startSize=8;entryX=0.291;entryY=1.061;entryDx=0;entryDy=0;entryPerimeter=0;" parent="1" source="TKDaQTlKowNkifoECcdJ-111" target="TKDaQTlKowNkifoECcdJ-2" edge="1">
          <mxGeometry width="50" height="50" relative="1" as="geometry">
            <mxPoint x="437.6539999999998" y="467.72000000000025" as="sourcePoint" />
            <mxPoint x="-424.99899999999997" y="230" as="targetPoint" />
            <Array as="points">
              <mxPoint x="438" y="470" />
              <mxPoint x="12" y="470" />
              <mxPoint x="12" y="383" />
              <mxPoint x="-168" y="383" />
              <mxPoint x="-168" y="230" />
              <mxPoint x="-427" y="230" />
            </Array>
          </mxGeometry>
        </mxCell>
        <mxCell id="TKDaQTlKowNkifoECcdJ-131" value="" style="edgeStyle=segmentEdgeStyle;endArrow=classic;html=1;curved=0;rounded=0;endSize=8;startSize=8;" parent="1" source="TKDaQTlKowNkifoECcdJ-17" target="TKDaQTlKowNkifoECcdJ-31" edge="1">
          <mxGeometry width="50" height="50" relative="1" as="geometry">
            <mxPoint x="680" y="-10" as="sourcePoint" />
            <mxPoint x="510" y="180" as="targetPoint" />
            <Array as="points">
              <mxPoint x="560" y="-100" />
              <mxPoint x="844" y="-100" />
            </Array>
          </mxGeometry>
        </mxCell>
        <mxCell id="TKDaQTlKowNkifoECcdJ-132" value="" style="edgeStyle=segmentEdgeStyle;endArrow=classic;html=1;curved=0;rounded=0;endSize=8;startSize=8;exitX=0.907;exitY=0.068;exitDx=0;exitDy=0;exitPerimeter=0;entryX=0.248;entryY=1.036;entryDx=0;entryDy=0;entryPerimeter=0;" parent="1" source="TKDaQTlKowNkifoECcdJ-10" target="TKDaQTlKowNkifoECcdJ-31" edge="1">
          <mxGeometry width="50" height="50" relative="1" as="geometry">
            <mxPoint x="510" y="180" as="sourcePoint" />
            <mxPoint x="850" y="-30" as="targetPoint" />
            <Array as="points">
              <mxPoint x="578" y="180" />
              <mxPoint x="660" y="180" />
              <mxPoint x="660" y="-10" />
              <mxPoint x="843" y="-10" />
            </Array>
          </mxGeometry>
        </mxCell>
        <mxCell id="TKDaQTlKowNkifoECcdJ-135" value="" style="edgeStyle=segmentEdgeStyle;endArrow=classic;html=1;curved=0;rounded=0;endSize=8;startSize=8;entryX=0.25;entryY=1;entryDx=0;entryDy=0;exitX=0.412;exitY=0.011;exitDx=0;exitDy=0;exitPerimeter=0;" parent="1" source="TKDaQTlKowNkifoECcdJ-52" target="TKDaQTlKowNkifoECcdJ-1" edge="1">
          <mxGeometry width="50" height="50" relative="1" as="geometry">
            <mxPoint x="-10" y="340" as="sourcePoint" />
            <mxPoint x="40" y="290" as="targetPoint" />
            <Array as="points">
              <mxPoint x="-459" y="460" />
              <mxPoint x="-230" y="460" />
              <mxPoint x="-230" y="250" />
              <mxPoint x="-440" y="250" />
            </Array>
          </mxGeometry>
        </mxCell>
        <mxCell id="TKDaQTlKowNkifoECcdJ-58" value="" style="shape=table;startSize=0;container=1;collapsible=0;childLayout=tableLayout;" parent="1" vertex="1">
          <mxGeometry x="-690" y="-80" width="642" height="40" as="geometry" />
        </mxCell>
        <mxCell id="TKDaQTlKowNkifoECcdJ-59" value="" style="shape=tableRow;horizontal=0;startSize=0;swimlaneHead=0;swimlaneBody=0;strokeColor=inherit;top=0;left=0;bottom=0;right=0;collapsible=0;dropTarget=0;fillColor=none;points=[[0,0.5],[1,0.5]];portConstraint=eastwest;" parent="TKDaQTlKowNkifoECcdJ-58" vertex="1">
          <mxGeometry width="642" height="40" as="geometry" />
        </mxCell>
        <mxCell id="BnvUHIMAj6Ek2cRoKaDF-1" value="&lt;u&gt;metric_id&lt;/u&gt;" style="shape=partialRectangle;html=1;whiteSpace=wrap;connectable=0;strokeColor=inherit;overflow=hidden;fillColor=#FFFFFF;top=0;left=0;bottom=0;right=0;pointerEvents=1;" vertex="1" parent="TKDaQTlKowNkifoECcdJ-59">
          <mxGeometry width="107" height="40" as="geometry">
            <mxRectangle width="107" height="40" as="alternateBounds" />
          </mxGeometry>
        </mxCell>
        <mxCell id="TKDaQTlKowNkifoECcdJ-60" value="rmem_email" style="shape=partialRectangle;html=1;whiteSpace=wrap;connectable=0;strokeColor=inherit;overflow=hidden;fillColor=#FFF4C3;top=0;left=0;bottom=0;right=0;pointerEvents=1;" parent="TKDaQTlKowNkifoECcdJ-59" vertex="1">
          <mxGeometry x="107" width="107" height="40" as="geometry">
            <mxRectangle width="107" height="40" as="alternateBounds" />
          </mxGeometry>
        </mxCell>
        <mxCell id="TKDaQTlKowNkifoECcdJ-61" value="blood_pressure" style="shape=partialRectangle;html=1;whiteSpace=wrap;connectable=0;strokeColor=inherit;overflow=hidden;fillColor=none;top=0;left=0;bottom=0;right=0;pointerEvents=1;" parent="TKDaQTlKowNkifoECcdJ-59" vertex="1">
          <mxGeometry x="214" width="107" height="40" as="geometry">
            <mxRectangle width="107" height="40" as="alternateBounds" />
          </mxGeometry>
        </mxCell>
        <mxCell id="TKDaQTlKowNkifoECcdJ-62" value="heart_rate" style="shape=partialRectangle;html=1;whiteSpace=wrap;connectable=0;strokeColor=inherit;overflow=hidden;fillColor=none;top=0;left=0;bottom=0;right=0;pointerEvents=1;" parent="TKDaQTlKowNkifoECcdJ-59" vertex="1">
          <mxGeometry x="321" width="107" height="40" as="geometry">
            <mxRectangle width="107" height="40" as="alternateBounds" />
          </mxGeometry>
        </mxCell>
        <mxCell id="TKDaQTlKowNkifoECcdJ-86" value="blood_sugar" style="shape=partialRectangle;html=1;whiteSpace=wrap;connectable=0;strokeColor=inherit;overflow=hidden;fillColor=none;top=0;left=0;bottom=0;right=0;pointerEvents=1;" parent="TKDaQTlKowNkifoECcdJ-59" vertex="1">
          <mxGeometry x="428" width="107" height="40" as="geometry">
            <mxRectangle width="107" height="40" as="alternateBounds" />
          </mxGeometry>
        </mxCell>
        <mxCell id="TKDaQTlKowNkifoECcdJ-87" value="weight" style="shape=partialRectangle;html=1;whiteSpace=wrap;connectable=0;strokeColor=inherit;overflow=hidden;fillColor=none;top=0;left=0;bottom=0;right=0;pointerEvents=1;" parent="TKDaQTlKowNkifoECcdJ-59" vertex="1">
          <mxGeometry x="535" width="107" height="40" as="geometry">
            <mxRectangle width="107" height="40" as="alternateBounds" />
          </mxGeometry>
        </mxCell>
      </root>
    </mxGraphModel>
  </diagram>
</mxfile>
